<svg id="Layer_1" data-name="Layer 1" xmlns="http://www.w3.org/2000/svg" viewBox="0 0 100 100"><defs><style>.cls-1{fill:#dcc7aa;}.cls-2{fill:none;stroke:#6b78af;stroke-miterlimit:10;stroke-width:0.5px;}.cls-3{fill:#6b78af;}.cls-4{fill:#fff;}</style></defs><title>Buttons</title><circle class="cls-1" cx="49.26" cy="49.34" r="48.72"/><circle class="cls-2" cx="49.25" cy="49.46" r="42.36"/><path class="cls-3" d="M17.71,52.83a2.63,2.63,0,0,1,1.91-3L44.38,65.79,79,45.87a2.77,2.77,0,0,1,1.77,3.07L45.5,69.29a4.4,4.4,0,0,1-2.14.07Z"/><path class="cls-3" d="M18.16,60.87a2.63,2.63,0,0,1,1.91-3L44.82,73.82,79.4,53.9A2.77,2.77,0,0,1,81.17,57L45.95,77.32a4.4,4.4,0,0,1-2.14.07Z"/><path class="cls-3" d="M17.07,45.14s-1-2.25,1-3.38L51.52,25A3.3,3.3,0,0,1,55,25l24,12.33s3.56,2.25.47,4.39l-17,10.14s-.24.36-2.73.77l-29.77.06a12.61,12.61,0,0,1-2.79-.95Z"/><path class="cls-4" d="M22.31,43.88,52.78,28.15l21.7,11.3-14,8.19s-3.19,2.07-6.05.85c0,0-7.32-4.45-8.68-6.24a2.43,2.43,0,0,0-4-.09s-6.48,7.75-11.3,6.69Z"/></svg>